<?xml version="1.0" ?><svg data-name="Layer 1" id="Layer_1" viewBox="0 0 64 64" xmlns="http://www.w3.org/2000/svg"><defs><style>.cls-1{fill:#231f20;}</style></defs><title/><path class="cls-1" d="M11.67,37.36h-3a1,1,0,0,1-1-1V27.64a1,1,0,0,1,1-1h3a1,1,0,0,1,1,1v8.72A1,1,0,0,1,11.67,37.36Zm-2-2h1V28.64h-1Z"/><path class="cls-1" d="M15.67,39.59h-4a1,1,0,0,1-1-1V25.41a1,1,0,0,1,1-1h4a1,1,0,0,1,1,1V38.59A1,1,0,0,1,15.67,39.59Zm-3-2h2V26.41h-2Z"/><path class="cls-1" d="M22.32,42H15.67a1,1,0,0,1-1-1V23a1,1,0,0,1,1-1h6.65a1,1,0,0,1,1,1V41A1,1,0,0,1,22.32,42Zm-5.65-2h4.65V24H16.67Z"/><path class="cls-1" d="M55.33,37.36h-3a1,1,0,0,1-1-1V27.64a1,1,0,0,1,1-1h3a1,1,0,0,1,1,1v8.72A1,1,0,0,1,55.33,37.36Zm-2-2h1V28.64h-1Z"/><path class="cls-1" d="M52.32,39.59h-4a1,1,0,0,1-1-1V25.41a1,1,0,0,1,1-1h4a1,1,0,0,1,1,1V38.59A1,1,0,0,1,52.32,39.59Zm-3-2h2V26.41h-2Z"/><path class="cls-1" d="M48.32,42H41.67a1,1,0,0,1-1-1V23a1,1,0,0,1,1-1h6.65a1,1,0,0,1,1,1V41A1,1,0,0,1,48.32,42Zm-5.65-2h4.65V24H42.67Z"/><path class="cls-1" d="M41.67,35H22.32a1,1,0,0,1-1-1V30a1,1,0,0,1,1-1H41.67a1,1,0,0,1,1,1V34A1,1,0,0,1,41.67,35ZM23.32,33H40.67V31H23.32Z"/></svg>